<?xml version="1.0" standalone="no"?>
<!DOCTYPE svg PUBLIC "-//W3C//DTD SVG 20010904//EN"
 "http://www.w3.org/TR/2001/REC-SVG-20010904/DTD/svg10.dtd">
<svg version="1.0" xmlns="http://www.w3.org/2000/svg"
 width="455.000000pt" height="455.000000pt" viewBox="0 0 455.000000 455.000000"
 preserveAspectRatio="xMidYMid meet">
<metadata>
Created by potrace 1.14, written by Peter Selinger 2001-2017
</metadata>
<g transform="translate(0.000000,455.000000) scale(0.100000,-0.100000)"
fill="#000000" stroke="none">
<path d="M1220 3556 c-84 -30 -144 -76 -189 -146 -44 -68 -58 -119 -65 -236
-17 -304 -236 -524 -545 -549 -110 -9 -134 -14 -186 -40 -152 -74 -232 -240
-200 -409 19 -96 106 -205 201 -252 67 -33 175 -43 254 -24 110 26 222 133
255 243 8 26 17 89 20 140 10 166 57 277 165 388 142 145 361 203 560 148 100
-27 172 -70 251 -149 62 -62 132 -176 143 -235 3 -11 8 -38 13 -60 5 -22 11
-69 12 -105 5 -141 59 -245 166 -320 83 -58 203 -77 305 -50 96 25 192 109
236 205 23 49 26 71 38 221 8 100 58 228 113 290 10 12 32 36 48 55 60 68 211
148 310 164 238 38 488 -83 597 -290 45 -88 65 -157 73 -263 8 -103 24 -157
63 -213 41 -60 78 -93 137 -122 72 -36 115 -46 187 -42 99 5 173 39 247 113
153 156 127 427 -54 551 -60 42 -122 62 -200 67 -149 10 -244 40 -341 109
-140 100 -222 244 -240 419 -2 23 -7 66 -10 96 -11 99 -74 201 -159 255 -97
62 -214 76 -330 39 -48 -15 -73 -32 -126 -84 -81 -80 -108 -143 -115 -269 -5
-103 -8 -121 -32 -193 -55 -166 -196 -302 -372 -360 -52 -18 -129 -19 -265 -3
-141 16 -319 138 -398 272 -52 90 -71 157 -82 301 -12 145 -85 261 -202 320
-82 42 -195 49 -283 18z"/>
<path d="M1264 1686 c-213 -52 -333 -281 -255 -486 55 -144 184 -232 341 -233
148 -1 268 74 333 207 103 210 -27 465 -261 515 -65 13 -92 13 -158 -3z"/>
<path d="M3150 1685 c-72 -19 -119 -45 -169 -94 -122 -119 -144 -303 -54 -453
39 -66 88 -108 170 -145 49 -23 72 -27 143 -27 73 1 94 5 150 31 232 107 286
398 111 586 -89 95 -228 136 -351 102z"/>
</g>
</svg>
